<svg class="main-header-logo" fill="none" height="40" viewBox="0 0 163 40" width="163" xmlns="http://www.w3.org/2000/svg">
<path d="M121.934 0.00012207V11.0151H98.7595V29.1091H121.939V39.9957H100.235C95.2945 39.9957 90.7887 39.2563 88.3206 35.5375C86.8889 33.439 86.498 31.0793 86.498 28.1086V12.2414C86.498 8.3056 87.1085 5.20211 89.7918 2.62547C92.0008 0.48269 95.255 0.00012207 98.9352 0.00012207H121.934Z" fill="#0E5447"></path>
<path d="M162.996 0.00012207V11.0151H139.821V29.1091H163V39.9957H141.297C136.356 39.9957 131.85 39.2563 129.386 35.5375C127.955 33.439 127.564 31.0793 127.564 28.1086V12.2414C127.564 8.3056 128.17 5.20211 130.853 2.62547C133.062 0.48269 136.312 0.00012207 139.992 0.00012207H162.991H162.996Z" fill="#0E5447"></path>
<path d="M28.1504 23.429C28.1504 25.253 27.9616 26.7671 26.8944 27.9448C26.0205 28.9099 24.6766 29.0117 23.2186 29.0117H12.1648V10.807H22.7004C24.659 10.807 26.486 11.0859 27.4829 12.7727C28.0318 13.7245 28.1548 14.8579 28.1548 16.2126V23.429H28.1504ZM38.5937 4.32552C36.0773 0.61108 31.4837 0.00012207 26.5475 0.00012207H0V40.0001H27.8474C31.532 40.0001 34.9091 39.7788 37.1181 37.6404C39.8014 35.0638 40.2801 31.7433 40.2801 27.7278V11.8784C40.2801 8.91213 39.9771 6.4196 38.5893 4.32552" fill="#0E5447"></path>
<path d="M44.7236 0.00012207V10.8513H57.1432V39.9868L69.7779 40.0001V10.8601H81.9823V10.8513H82.0745V0.0222582H81.8945V0.00012207H44.7236Z" fill="#0E5447"></path>
</svg>