<svg version="1.1" id="Layer_1" xmlns:x="ns_extend;" xmlns:i="ns_ai;" xmlns:graph="ns_graphs;" xmlns="http://www.w3.org/2000/svg" xmlns:xlink="http://www.w3.org/1999/xlink" x="0px" y="0px" viewBox="0 0 354.7 56" style="enable-background:new 0 0 354.7 56;" xml:space="preserve">
 <style type="text/css">
  .st0{fill-rule:evenodd;clip-rule:evenodd;fill:#FE5E00;}
 </style>
 <metadata>
  <sfw xmlns="ns_sfw;">
   <slices>
   </slices>
   <sliceSourceBounds bottomLeftOrigin="true" height="56" width="354.7" x="22.6" y="-228">
   </sliceSourceBounds>
  </sfw>
 </metadata>
 <g>
  <path class="st0" d="M25.2,0l0.4,5.8c-1,0.1-2,0.3-3,0.6l-2-5.5l-6,2.5l2.5,5.2c-0.8,0.5-1.7,1-2.5,1.6l-4-4.3L6,10.5l4.4,3.9
		c-0.6,0.8-1.2,1.6-1.7,2.5l-5.3-2.5l-2.5,5.9l5.6,1.9c-0.2,1-0.5,2-0.6,2.9L0,24.8v6.5l5.9-0.3c0.1,1,0.3,2,0.6,2.9l-5.6,1.9
		l2.5,5.9l5.3-2.5c0.5,0.9,1.1,1.7,1.7,2.5L6,45.5l4.6,4.6l4-4.3c0.8,0.6,1.6,1.1,2.5,1.6l-2.6,5.2l6,2.5l2-5.5
		c1,0.3,1.9,0.5,2.9,0.6L25.2,56h6.6l-0.4-5.8c1-0.2,2-0.3,3-0.6l2,5.5l6-2.5l-2.5-5.2c0.8-0.5,1.7-1,2.5-1.6l4,4.3l4.6-4.6
		l-4.5-3.8c0.6-0.8,1.2-1.6,1.7-2.5l5.4,2.5l2.5-6l-5.6-1.9c0.3-1,0.5-2,0.6-2.9l5.9,0.3v-6.4l-5.9,0.3c-0.1-1-0.3-2-0.6-2.9
		l5.6-1.9l-2.5-5.9l-5.3,2.5c-0.5-0.8-1.1-1.6-1.7-2.4l4.4-3.9l-4.6-4.6l-4,4.3c-0.8-0.6-1.6-1.2-2.5-1.6l2.6-5.2l-6.1-2.5l-1.9,5.5
		c-1-0.2-2-0.5-3-0.6L31.8,0H25.2z M140,14.6l-6.4,15.8l-6.2-15.7h-5.7l11.9,27.9l12-28H140z M329.7,13.5v27.6h3.2V20.7l21.9,21.6
		V14.6h-3.1v20.5L329.7,13.5z M28.4,14.4c0,0,0.1,0,0.1,0c12.4,0,18.5,14.9,9.7,23.6c-2.8,2.8-6.2,4-9.6,4c-7.2,0-14-5.6-13.9-14
		C14.8,20.5,20.9,14.4,28.4,14.4z M303,14.2c-8,0-14.6,6.1-14.6,13.7c0,7.6,6.7,13.6,14.6,13.6c8,0,14.6-6,14.6-13.6
		C317.6,20.3,311,14.2,303,14.2z M270.7,14.2c-0.1,0-0.1,0-0.2,0c-4.2,0-7.9,2.6-7.9,6.7c0,3.8,2.8,5.4,6.1,6.8l1.7,0.7
		c2.7,1.1,5.2,2.3,5.2,5.2c0,3-2.8,5.2-5.8,5.2c-2.9,0-5.3-2.1-5.7-5l-3.1,0.8c0.9,4.1,4.2,6.8,8.8,6.8c4.9,0,8.8-3.6,8.8-8.2
		c0-4.2-3.1-5.9-6.7-7.4l-1.9-0.8c-1.9-0.8-4.4-1.9-4.4-4.1c0-2.4,2.1-4.1,4.6-4.1c2.4,0,3.7,1.1,4.9,2.9l2.5-1.5
		C276.3,15.7,273.6,14.2,270.7,14.2z M155.5,14.6v26.5h14v-4.5h-8.7v-7.2h8.4v-4.5h-8.4v-5.8h8.7v-4.5H155.5z M106.8,14.6v26.5h5.3
		V14.6H106.8z M84.1,14.6v26.5h12.7v-4.5h-7.5v-22H84.1z M235.8,14.6v26.4h3.1V29.4h0.8l8.5,11.6h3.8l-8.9-11.8
		c4.4-0.3,7.1-3.3,7.1-7.3c0-6-4.9-7.3-10.3-7.3H235.8z M209.1,14.6v26.4h14.5v-2.7h-11.4V27.9h11.1v-2.7h-11.1v-7.9h11.4v-2.7
		H209.1z M183.3,14.6v26.4h3.2V29.5h2.3c2.3,0,4.7-0.3,6.7-1.7c3.7-3.1,3.5-9-0.5-11.7c-2-1.4-4.5-1.4-7-1.4H183.3z M303,16.9
		c6.4,0,11.5,5,11.5,10.9c0,6-5.1,11-11.5,11c-6.4,0-11.5-5-11.5-11C291.4,21.9,296.5,16.9,303,16.9z M239.9,17.3
		c3.7,0,7.1,0.5,7.1,4.8c0,4.1-3.6,4.7-7.1,4.7h-1v-9.5H239.9z M187.6,17.3c3.6,0,7.3,0.3,7.3,4.6c0,3.8-2.9,4.8-6.4,4.8h-2v-9.4
		H187.6z">
  </path>
 </g>
</svg>